<svg xmlns="http://www.w3.org/2000/svg" viewBox="0 0 64 64" fill="none">
  <g transform="translate(32 32) rotate(-18) scale(1.1) translate(-32 -32)">
    <rect x="8" y="20" width="48" height="24" rx="4" fill="#f5f3ef" stroke="#111827" stroke-width="2.4"/>
    <rect x="8" y="36" width="48" height="8" rx="0 0 4 4" fill="#d62f45"/>

    <rect x="11" y="23" width="19" height="16" rx="2" fill="#e7e3dc" stroke="#4b5563" stroke-width="1.2"/>
    <path d="M17 26h4v4h4v4h-4v4h-4v-4h-4v-4h4z" fill="#111827"/>

    <rect x="33" y="23" width="20" height="16" rx="2" fill="#e7e3dc" stroke="#4b5563" stroke-width="1.2"/>
    <circle cx="42" cy="30.5" r="3.3" fill="#ef4444" stroke="#7f1d1d" stroke-width="1.2"/>
    <circle cx="48" cy="33.5" r="3.3" fill="#ef4444" stroke="#7f1d1d" stroke-width="1.2"/>

    <rect x="28.5" y="30" width="3.8" height="2.4" rx="1.2" fill="#9ca3af" stroke="#374151" stroke-width="0.8"/>
    <rect x="23.5" y="30" width="3.8" height="2.4" rx="1.2" fill="#9ca3af" stroke="#374151" stroke-width="0.8"/>

    <path d="M12 20.8c3.2-2.8 6.6-4.4 10.2-4.8" stroke="#4b5563" stroke-width="1.4" stroke-linecap="round"/>
  </g>
</svg>
